<mxfile host="Electron" modified="2024-04-15T21:26:49.914Z" agent="Mozilla/5.0 (Macintosh; Intel Mac OS X 10_15_7) AppleWebKit/537.36 (KHTML, like Gecko) draw.io/24.2.5 Chrome/120.0.6099.109 Electron/28.1.0 Safari/537.36" etag="PZWV9oyTZO1cDAJTpVWG" version="24.2.5" type="device">
  <diagram name="Page-1" id="lk3DoYH3_mxued0-EZq-">
    <mxGraphModel dx="1059" dy="1260" grid="1" gridSize="10" guides="1" tooltips="1" connect="1" arrows="1" fold="1" page="1" pageScale="1" pageWidth="827" pageHeight="1169" math="0" shadow="0">
      <root>
        <mxCell id="0" />
        <mxCell id="1" parent="0" />
        <mxCell id="gzzAdNc6FvL0EBI_JPck-6" style="edgeStyle=orthogonalEdgeStyle;rounded=0;orthogonalLoop=1;jettySize=auto;html=1;exitX=0.5;exitY=1;exitDx=0;exitDy=0;entryX=0.5;entryY=0;entryDx=0;entryDy=0;" parent="1" source="gzzAdNc6FvL0EBI_JPck-1" target="gzzAdNc6FvL0EBI_JPck-4" edge="1">
          <mxGeometry relative="1" as="geometry" />
        </mxCell>
        <mxCell id="gzzAdNc6FvL0EBI_JPck-1" value="Beregn CL" style="rounded=0;whiteSpace=wrap;html=1;strokeWidth=2;fillColor=none;" parent="1" vertex="1">
          <mxGeometry x="340" y="50" width="120" height="30" as="geometry" />
        </mxCell>
        <mxCell id="gzzAdNc6FvL0EBI_JPck-11" style="edgeStyle=orthogonalEdgeStyle;rounded=0;orthogonalLoop=1;jettySize=auto;html=1;exitX=0.5;exitY=1;exitDx=0;exitDy=0;entryX=0.5;entryY=0;entryDx=0;entryDy=0;" parent="1" source="gzzAdNc6FvL0EBI_JPck-4" target="gzzAdNc6FvL0EBI_JPck-7" edge="1">
          <mxGeometry relative="1" as="geometry" />
        </mxCell>
        <mxCell id="gzzAdNc6FvL0EBI_JPck-12" style="edgeStyle=orthogonalEdgeStyle;rounded=0;orthogonalLoop=1;jettySize=auto;html=1;exitX=0.5;exitY=1;exitDx=0;exitDy=0;entryX=0.5;entryY=0;entryDx=0;entryDy=0;" parent="1" source="gzzAdNc6FvL0EBI_JPck-4" target="gzzAdNc6FvL0EBI_JPck-8" edge="1">
          <mxGeometry relative="1" as="geometry" />
        </mxCell>
        <mxCell id="gzzAdNc6FvL0EBI_JPck-14" style="edgeStyle=orthogonalEdgeStyle;rounded=0;orthogonalLoop=1;jettySize=auto;html=1;exitX=0.5;exitY=1;exitDx=0;exitDy=0;entryX=0.5;entryY=0;entryDx=0;entryDy=0;" parent="1" source="gzzAdNc6FvL0EBI_JPck-4" target="gzzAdNc6FvL0EBI_JPck-9" edge="1">
          <mxGeometry relative="1" as="geometry" />
        </mxCell>
        <mxCell id="gzzAdNc6FvL0EBI_JPck-15" style="edgeStyle=orthogonalEdgeStyle;rounded=0;orthogonalLoop=1;jettySize=auto;html=1;exitX=0.5;exitY=1;exitDx=0;exitDy=0;" parent="1" source="gzzAdNc6FvL0EBI_JPck-4" target="gzzAdNc6FvL0EBI_JPck-10" edge="1">
          <mxGeometry relative="1" as="geometry" />
        </mxCell>
        <mxCell id="gzzAdNc6FvL0EBI_JPck-4" value="Sl책 angrebsslag" style="rounded=0;whiteSpace=wrap;html=1;strokeWidth=2;fillColor=none;" parent="1" vertex="1">
          <mxGeometry x="340" y="120" width="120" height="30" as="geometry" />
        </mxCell>
        <mxCell id="gzzAdNc6FvL0EBI_JPck-18" style="edgeStyle=orthogonalEdgeStyle;rounded=0;orthogonalLoop=1;jettySize=auto;html=1;exitX=0.5;exitY=1;exitDx=0;exitDy=0;entryX=0.5;entryY=0;entryDx=0;entryDy=0;" parent="1" source="gzzAdNc6FvL0EBI_JPck-7" target="gzzAdNc6FvL0EBI_JPck-17" edge="1">
          <mxGeometry relative="1" as="geometry" />
        </mxCell>
        <mxCell id="gzzAdNc6FvL0EBI_JPck-7" value="Fumleslag" style="rounded=0;whiteSpace=wrap;html=1;fillColor=none;" parent="1" vertex="1">
          <mxGeometry x="40" y="200" width="120" height="30" as="geometry" />
        </mxCell>
        <mxCell id="gzzAdNc6FvL0EBI_JPck-8" value="Mislykket slag" style="rounded=0;whiteSpace=wrap;html=1;fillColor=none;" parent="1" vertex="1">
          <mxGeometry x="240" y="200" width="120" height="30" as="geometry" />
        </mxCell>
        <mxCell id="gzzAdNc6FvL0EBI_JPck-9" value="Lykket slag" style="rounded=0;whiteSpace=wrap;html=1;fillColor=none;" parent="1" vertex="1">
          <mxGeometry x="440" y="200" width="120" height="30" as="geometry" />
        </mxCell>
        <mxCell id="gzzAdNc6FvL0EBI_JPck-77" style="edgeStyle=orthogonalEdgeStyle;rounded=0;orthogonalLoop=1;jettySize=auto;html=1;entryX=0.842;entryY=0;entryDx=0;entryDy=0;entryPerimeter=0;" parent="1" source="gzzAdNc6FvL0EBI_JPck-10" target="gzzAdNc6FvL0EBI_JPck-60" edge="1">
          <mxGeometry relative="1" as="geometry">
            <mxPoint x="700" y="600" as="targetPoint" />
          </mxGeometry>
        </mxCell>
        <mxCell id="gzzAdNc6FvL0EBI_JPck-10" value="Perfekt slag" style="rounded=0;whiteSpace=wrap;html=1;fillColor=none;" parent="1" vertex="1">
          <mxGeometry x="660" y="200" width="80" height="30" as="geometry" />
        </mxCell>
        <mxCell id="gzzAdNc6FvL0EBI_JPck-17" value="Sl책 p책 fumletabellen" style="rounded=0;whiteSpace=wrap;html=1;strokeWidth=3;fillColor=none;" parent="1" vertex="1">
          <mxGeometry x="40" y="270" width="120" height="30" as="geometry" />
        </mxCell>
        <mxCell id="gzzAdNc6FvL0EBI_JPck-28" style="edgeStyle=orthogonalEdgeStyle;rounded=0;orthogonalLoop=1;jettySize=auto;html=1;exitX=0.194;exitY=1.019;exitDx=0;exitDy=0;entryX=0.5;entryY=0;entryDx=0;entryDy=0;exitPerimeter=0;" parent="1" source="gzzAdNc6FvL0EBI_JPck-19" target="gzzAdNc6FvL0EBI_JPck-23" edge="1">
          <mxGeometry relative="1" as="geometry">
            <Array as="points">
              <mxPoint x="300" y="301" />
              <mxPoint x="300" y="320" />
              <mxPoint x="90" y="320" />
            </Array>
          </mxGeometry>
        </mxCell>
        <mxCell id="gzzAdNc6FvL0EBI_JPck-29" style="edgeStyle=orthogonalEdgeStyle;rounded=0;orthogonalLoop=1;jettySize=auto;html=1;exitX=0.25;exitY=1;exitDx=0;exitDy=0;entryX=0.5;entryY=0;entryDx=0;entryDy=0;" parent="1" source="gzzAdNc6FvL0EBI_JPck-19" target="gzzAdNc6FvL0EBI_JPck-24" edge="1">
          <mxGeometry relative="1" as="geometry">
            <Array as="points">
              <mxPoint x="300" y="300" />
              <mxPoint x="300" y="320" />
              <mxPoint x="200" y="320" />
            </Array>
          </mxGeometry>
        </mxCell>
        <mxCell id="gzzAdNc6FvL0EBI_JPck-30" style="edgeStyle=orthogonalEdgeStyle;rounded=0;orthogonalLoop=1;jettySize=auto;html=1;exitX=0.25;exitY=1;exitDx=0;exitDy=0;entryX=0.5;entryY=0;entryDx=0;entryDy=0;" parent="1" source="gzzAdNc6FvL0EBI_JPck-19" target="gzzAdNc6FvL0EBI_JPck-25" edge="1">
          <mxGeometry relative="1" as="geometry">
            <Array as="points">
              <mxPoint x="300" y="300" />
              <mxPoint x="300" y="320" />
              <mxPoint x="310" y="320" />
            </Array>
          </mxGeometry>
        </mxCell>
        <mxCell id="gzzAdNc6FvL0EBI_JPck-52" style="edgeStyle=orthogonalEdgeStyle;rounded=0;orthogonalLoop=1;jettySize=auto;html=1;exitX=0.75;exitY=1;exitDx=0;exitDy=0;entryX=0.5;entryY=0;entryDx=0;entryDy=0;" parent="1" source="gzzAdNc6FvL0EBI_JPck-19" target="gzzAdNc6FvL0EBI_JPck-39" edge="1">
          <mxGeometry relative="1" as="geometry">
            <Array as="points">
              <mxPoint x="500" y="300" />
            </Array>
          </mxGeometry>
        </mxCell>
        <mxCell id="gzzAdNc6FvL0EBI_JPck-53" style="edgeStyle=orthogonalEdgeStyle;rounded=0;orthogonalLoop=1;jettySize=auto;html=1;exitX=0.75;exitY=1;exitDx=0;exitDy=0;entryX=0.5;entryY=0;entryDx=0;entryDy=0;" parent="1" source="gzzAdNc6FvL0EBI_JPck-19" target="gzzAdNc6FvL0EBI_JPck-41" edge="1">
          <mxGeometry relative="1" as="geometry">
            <Array as="points">
              <mxPoint x="500" y="300" />
              <mxPoint x="500" y="320" />
              <mxPoint x="580" y="320" />
            </Array>
          </mxGeometry>
        </mxCell>
        <mxCell id="gzzAdNc6FvL0EBI_JPck-54" style="edgeStyle=orthogonalEdgeStyle;rounded=0;orthogonalLoop=1;jettySize=auto;html=1;exitX=0.75;exitY=1;exitDx=0;exitDy=0;entryX=0.5;entryY=0;entryDx=0;entryDy=0;" parent="1" source="gzzAdNc6FvL0EBI_JPck-19" target="gzzAdNc6FvL0EBI_JPck-50" edge="1">
          <mxGeometry relative="1" as="geometry">
            <Array as="points">
              <mxPoint x="500" y="300" />
              <mxPoint x="500" y="320" />
              <mxPoint x="650" y="320" />
            </Array>
          </mxGeometry>
        </mxCell>
        <mxCell id="gzzAdNc6FvL0EBI_JPck-69" style="edgeStyle=orthogonalEdgeStyle;rounded=0;orthogonalLoop=1;jettySize=auto;html=1;exitX=0.75;exitY=1;exitDx=0;exitDy=0;entryX=0.56;entryY=0.027;entryDx=0;entryDy=0;entryPerimeter=0;" parent="1" source="gzzAdNc6FvL0EBI_JPck-19" target="gzzAdNc6FvL0EBI_JPck-38" edge="1">
          <mxGeometry relative="1" as="geometry">
            <Array as="points">
              <mxPoint x="480" y="320" />
              <mxPoint x="420" y="320" />
              <mxPoint x="420" y="341" />
            </Array>
          </mxGeometry>
        </mxCell>
        <mxCell id="gzzAdNc6FvL0EBI_JPck-19" value="Sl책 pareringsslag, ikke projektilangreb" style="rounded=0;whiteSpace=wrap;html=1;strokeWidth=2;fillColor=none;" parent="1" vertex="1">
          <mxGeometry x="240" y="270" width="320" height="30" as="geometry" />
        </mxCell>
        <mxCell id="gzzAdNc6FvL0EBI_JPck-21" style="edgeStyle=orthogonalEdgeStyle;rounded=0;orthogonalLoop=1;jettySize=auto;html=1;exitX=0.5;exitY=1;exitDx=0;exitDy=0;entryX=0.813;entryY=0.033;entryDx=0;entryDy=0;entryPerimeter=0;" parent="1" source="gzzAdNc6FvL0EBI_JPck-9" target="gzzAdNc6FvL0EBI_JPck-19" edge="1">
          <mxGeometry relative="1" as="geometry" />
        </mxCell>
        <mxCell id="gzzAdNc6FvL0EBI_JPck-22" style="edgeStyle=orthogonalEdgeStyle;rounded=0;orthogonalLoop=1;jettySize=auto;html=1;exitX=0.5;exitY=1;exitDx=0;exitDy=0;entryX=0.188;entryY=0;entryDx=0;entryDy=0;entryPerimeter=0;" parent="1" source="gzzAdNc6FvL0EBI_JPck-8" target="gzzAdNc6FvL0EBI_JPck-19" edge="1">
          <mxGeometry relative="1" as="geometry">
            <Array as="points">
              <mxPoint x="300" y="250" />
              <mxPoint x="300" y="250" />
            </Array>
          </mxGeometry>
        </mxCell>
        <mxCell id="gzzAdNc6FvL0EBI_JPck-23" value="Fumleslag" style="rounded=0;whiteSpace=wrap;html=1;fillColor=none;" parent="1" vertex="1">
          <mxGeometry x="40" y="340" width="100" height="30" as="geometry" />
        </mxCell>
        <mxCell id="gzzAdNc6FvL0EBI_JPck-24" value="Mislykket slag" style="rounded=0;whiteSpace=wrap;html=1;strokeWidth=3;fillColor=none;" parent="1" vertex="1">
          <mxGeometry x="150" y="340" width="100" height="30" as="geometry" />
        </mxCell>
        <mxCell id="gzzAdNc6FvL0EBI_JPck-34" style="edgeStyle=orthogonalEdgeStyle;rounded=0;orthogonalLoop=1;jettySize=auto;html=1;exitX=0.5;exitY=1;exitDx=0;exitDy=0;entryX=0.5;entryY=0;entryDx=0;entryDy=0;" parent="1" source="gzzAdNc6FvL0EBI_JPck-25" target="gzzAdNc6FvL0EBI_JPck-33" edge="1">
          <mxGeometry relative="1" as="geometry" />
        </mxCell>
        <mxCell id="gzzAdNc6FvL0EBI_JPck-25" value="Lykkedes eller perfekt" style="rounded=0;whiteSpace=wrap;html=1;fillColor=none;" parent="1" vertex="1">
          <mxGeometry x="260" y="340" width="100" height="30" as="geometry" />
        </mxCell>
        <mxCell id="gzzAdNc6FvL0EBI_JPck-31" value="Sl책 p책 fumletabellen" style="rounded=0;whiteSpace=wrap;html=1;strokeWidth=3;fillColor=none;" parent="1" vertex="1">
          <mxGeometry x="40" y="410" width="120" height="30" as="geometry" />
        </mxCell>
        <mxCell id="gzzAdNc6FvL0EBI_JPck-37" style="edgeStyle=orthogonalEdgeStyle;rounded=0;orthogonalLoop=1;jettySize=auto;html=1;exitX=0.5;exitY=1;exitDx=0;exitDy=0;entryX=0.5;entryY=0;entryDx=0;entryDy=0;" parent="1" source="gzzAdNc6FvL0EBI_JPck-33" target="gzzAdNc6FvL0EBI_JPck-35" edge="1">
          <mxGeometry relative="1" as="geometry" />
        </mxCell>
        <mxCell id="gzzAdNc6FvL0EBI_JPck-33" value="Sl책 skade" style="rounded=0;whiteSpace=wrap;html=1;strokeWidth=2;fillColor=none;" parent="1" vertex="1">
          <mxGeometry x="260" y="410" width="100" height="30" as="geometry" />
        </mxCell>
        <mxCell id="gzzAdNc6FvL0EBI_JPck-35" value="&lt;font style=&quot;font-size: 10px;&quot;&gt;Er skaden st첩rre end angriberens BV, tr챈k 1 fra angriberens BV&lt;/font&gt;" style="rounded=0;whiteSpace=wrap;html=1;strokeWidth=3;fillColor=none;" parent="1" vertex="1">
          <mxGeometry x="260" y="480" width="100" height="50" as="geometry" />
        </mxCell>
        <mxCell id="gzzAdNc6FvL0EBI_JPck-84" value="" style="edgeStyle=orthogonalEdgeStyle;rounded=0;orthogonalLoop=1;jettySize=auto;html=1;" parent="1" source="gzzAdNc6FvL0EBI_JPck-38" target="gzzAdNc6FvL0EBI_JPck-42" edge="1">
          <mxGeometry relative="1" as="geometry">
            <Array as="points">
              <mxPoint x="420" y="380" />
              <mxPoint x="420" y="380" />
            </Array>
          </mxGeometry>
        </mxCell>
        <mxCell id="gzzAdNc6FvL0EBI_JPck-38" value="Fumleslag" style="rounded=0;whiteSpace=wrap;html=1;fillColor=none;" parent="1" vertex="1">
          <mxGeometry x="380" y="340" width="70" height="30" as="geometry" />
        </mxCell>
        <mxCell id="gzzAdNc6FvL0EBI_JPck-39" value="Mislykket slag" style="rounded=0;whiteSpace=wrap;html=1;strokeWidth=1;fillColor=none;" parent="1" vertex="1">
          <mxGeometry x="460" y="340" width="80" height="30" as="geometry" />
        </mxCell>
        <mxCell id="gzzAdNc6FvL0EBI_JPck-40" style="edgeStyle=orthogonalEdgeStyle;rounded=0;orthogonalLoop=1;jettySize=auto;html=1;exitX=0.5;exitY=1;exitDx=0;exitDy=0;entryX=0.5;entryY=0;entryDx=0;entryDy=0;" parent="1" source="gzzAdNc6FvL0EBI_JPck-41" target="gzzAdNc6FvL0EBI_JPck-45" edge="1">
          <mxGeometry relative="1" as="geometry" />
        </mxCell>
        <mxCell id="gzzAdNc6FvL0EBI_JPck-41" value="Lykkedes" style="rounded=0;whiteSpace=wrap;html=1;fillColor=none;" parent="1" vertex="1">
          <mxGeometry x="550" y="340" width="60" height="30" as="geometry" />
        </mxCell>
        <mxCell id="gzzAdNc6FvL0EBI_JPck-42" value="Sl책 p책&lt;div&gt;fumletabellen&lt;/div&gt;" style="rounded=0;whiteSpace=wrap;html=1;strokeWidth=2;fillColor=none;" parent="1" vertex="1">
          <mxGeometry x="380" y="410" width="90" height="40" as="geometry" />
        </mxCell>
        <mxCell id="gzzAdNc6FvL0EBI_JPck-44" style="edgeStyle=orthogonalEdgeStyle;rounded=0;orthogonalLoop=1;jettySize=auto;html=1;exitX=0.5;exitY=1;exitDx=0;exitDy=0;entryX=0.5;entryY=0;entryDx=0;entryDy=0;" parent="1" source="gzzAdNc6FvL0EBI_JPck-45" target="gzzAdNc6FvL0EBI_JPck-46" edge="1">
          <mxGeometry relative="1" as="geometry" />
        </mxCell>
        <mxCell id="gzzAdNc6FvL0EBI_JPck-45" value="Sl책 skade" style="rounded=0;whiteSpace=wrap;html=1;strokeWidth=2;fillColor=none;" parent="1" vertex="1">
          <mxGeometry x="550" y="410" width="60" height="30" as="geometry" />
        </mxCell>
        <mxCell id="gzzAdNc6FvL0EBI_JPck-58" style="edgeStyle=orthogonalEdgeStyle;rounded=0;orthogonalLoop=1;jettySize=auto;html=1;exitX=0.5;exitY=1;exitDx=0;exitDy=0;entryX=0.5;entryY=0;entryDx=0;entryDy=0;" parent="1" source="gzzAdNc6FvL0EBI_JPck-46" target="gzzAdNc6FvL0EBI_JPck-57" edge="1">
          <mxGeometry relative="1" as="geometry" />
        </mxCell>
        <mxCell id="gzzAdNc6FvL0EBI_JPck-59" style="edgeStyle=orthogonalEdgeStyle;rounded=0;orthogonalLoop=1;jettySize=auto;html=1;exitX=0.5;exitY=1;exitDx=0;exitDy=0;entryX=0.5;entryY=0;entryDx=0;entryDy=0;" parent="1" source="gzzAdNc6FvL0EBI_JPck-46" target="gzzAdNc6FvL0EBI_JPck-56" edge="1">
          <mxGeometry relative="1" as="geometry" />
        </mxCell>
        <mxCell id="gzzAdNc6FvL0EBI_JPck-46" value="&lt;font style=&quot;font-size: 10px;&quot;&gt;Er skaden st첩rre end angriberens BV, tr챈k 1 fra angriberens BV&lt;/font&gt;" style="rounded=0;whiteSpace=wrap;html=1;strokeWidth=2;fillColor=none;" parent="1" vertex="1">
          <mxGeometry x="530" y="480" width="100" height="50" as="geometry" />
        </mxCell>
        <mxCell id="gzzAdNc6FvL0EBI_JPck-47" style="edgeStyle=orthogonalEdgeStyle;rounded=0;orthogonalLoop=1;jettySize=auto;html=1;exitX=0.5;exitY=1;exitDx=0;exitDy=0;entryX=0.415;entryY=0;entryDx=0;entryDy=0;entryPerimeter=0;" parent="1" source="gzzAdNc6FvL0EBI_JPck-23" target="gzzAdNc6FvL0EBI_JPck-31" edge="1">
          <mxGeometry relative="1" as="geometry" />
        </mxCell>
        <mxCell id="gzzAdNc6FvL0EBI_JPck-50" value="Perfekt" style="rounded=0;whiteSpace=wrap;html=1;strokeWidth=3;fillColor=none;" parent="1" vertex="1">
          <mxGeometry x="620" y="340" width="60" height="30" as="geometry" />
        </mxCell>
        <mxCell id="gzzAdNc6FvL0EBI_JPck-56" value="BV=0" style="rounded=0;whiteSpace=wrap;html=1;fillColor=none;" parent="1" vertex="1">
          <mxGeometry x="530" y="560" width="40" height="20" as="geometry" />
        </mxCell>
        <mxCell id="gzzAdNc6FvL0EBI_JPck-57" value="BV&amp;gt;0" style="rounded=0;whiteSpace=wrap;html=1;strokeWidth=3;fillColor=none;" parent="1" vertex="1">
          <mxGeometry x="590" y="560" width="40" height="20" as="geometry" />
        </mxCell>
        <mxCell id="gzzAdNc6FvL0EBI_JPck-60" value="Bestem tr챈fomr책de (Kun detaljeret kamp)" style="rounded=0;whiteSpace=wrap;html=1;fillColor=none;" parent="1" vertex="1">
          <mxGeometry x="380" y="610" width="380" height="30" as="geometry" />
        </mxCell>
        <mxCell id="gzzAdNc6FvL0EBI_JPck-74" style="edgeStyle=orthogonalEdgeStyle;rounded=0;orthogonalLoop=1;jettySize=auto;html=1;exitX=0.5;exitY=1;exitDx=0;exitDy=0;entryX=0.447;entryY=0;entryDx=0;entryDy=0;entryPerimeter=0;" parent="1" source="gzzAdNc6FvL0EBI_JPck-56" target="gzzAdNc6FvL0EBI_JPck-60" edge="1">
          <mxGeometry relative="1" as="geometry" />
        </mxCell>
        <mxCell id="gzzAdNc6FvL0EBI_JPck-80" value="Fratr챈k skade fra forsvarerens KP i den ramte kropsdel&amp;nbsp;&lt;div&gt;&lt;span style=&quot;background-color: initial;&quot;&gt;og/eller fra det totale antal KP&lt;/span&gt;&lt;/div&gt;" style="rounded=0;whiteSpace=wrap;html=1;strokeWidth=3;fillColor=none;" parent="1" vertex="1">
          <mxGeometry x="380" y="820" width="380" height="40" as="geometry" />
        </mxCell>
        <mxCell id="gzzAdNc6FvL0EBI_JPck-81" value="Sl책 skade" style="rounded=0;whiteSpace=wrap;html=1;strokeWidth=2;fillColor=none;" parent="1" vertex="1">
          <mxGeometry x="380" y="680" width="130" height="30" as="geometry" />
        </mxCell>
        <mxCell id="gzzAdNc6FvL0EBI_JPck-85" style="edgeStyle=orthogonalEdgeStyle;rounded=0;orthogonalLoop=1;jettySize=auto;html=1;exitX=0.5;exitY=1;exitDx=0;exitDy=0;entryX=0.119;entryY=0;entryDx=0;entryDy=0;entryPerimeter=0;" parent="1" edge="1">
          <mxGeometry relative="1" as="geometry">
            <mxPoint x="420" y="450" as="sourcePoint" />
            <mxPoint x="420.22" y="610" as="targetPoint" />
          </mxGeometry>
        </mxCell>
        <mxCell id="gzzAdNc6FvL0EBI_JPck-86" style="edgeStyle=orthogonalEdgeStyle;rounded=0;orthogonalLoop=1;jettySize=auto;html=1;exitX=0.5;exitY=1;exitDx=0;exitDy=0;entryX=0.316;entryY=0;entryDx=0;entryDy=0;entryPerimeter=0;" parent="1" source="gzzAdNc6FvL0EBI_JPck-39" target="gzzAdNc6FvL0EBI_JPck-60" edge="1">
          <mxGeometry relative="1" as="geometry" />
        </mxCell>
        <mxCell id="gzzAdNc6FvL0EBI_JPck-87" style="edgeStyle=orthogonalEdgeStyle;rounded=0;orthogonalLoop=1;jettySize=auto;html=1;exitX=0.25;exitY=1;exitDx=0;exitDy=0;entryX=0.732;entryY=0;entryDx=0;entryDy=0;entryPerimeter=0;" parent="1" edge="1">
          <mxGeometry relative="1" as="geometry">
            <mxPoint x="420" y="640" as="sourcePoint" />
            <mxPoint x="420.1600000000001" y="680" as="targetPoint" />
          </mxGeometry>
        </mxCell>
        <mxCell id="gzzAdNc6FvL0EBI_JPck-88" style="edgeStyle=orthogonalEdgeStyle;rounded=0;orthogonalLoop=1;jettySize=auto;html=1;exitX=0.25;exitY=1;exitDx=0;exitDy=0;entryX=0.732;entryY=0;entryDx=0;entryDy=0;entryPerimeter=0;" parent="1" edge="1">
          <mxGeometry relative="1" as="geometry">
            <mxPoint x="500" y="640" as="sourcePoint" />
            <mxPoint x="500.1600000000001" y="680" as="targetPoint" />
          </mxGeometry>
        </mxCell>
        <mxCell id="gzzAdNc6FvL0EBI_JPck-89" value="-1 til skaden" style="rounded=0;whiteSpace=wrap;html=1;strokeWidth=2;fillColor=none;" parent="1" vertex="1">
          <mxGeometry x="530" y="680" width="70" height="30" as="geometry" />
        </mxCell>
        <mxCell id="gzzAdNc6FvL0EBI_JPck-90" value="Maksimal skade" style="rounded=0;whiteSpace=wrap;html=1;strokeWidth=2;fillColor=none;" parent="1" vertex="1">
          <mxGeometry x="630" y="680" width="130" height="30" as="geometry" />
        </mxCell>
        <mxCell id="gzzAdNc6FvL0EBI_JPck-92" style="edgeStyle=orthogonalEdgeStyle;rounded=0;orthogonalLoop=1;jettySize=auto;html=1;exitX=0.75;exitY=1;exitDx=0;exitDy=0;entryX=0.269;entryY=0;entryDx=0;entryDy=0;entryPerimeter=0;" parent="1" edge="1">
          <mxGeometry relative="1" as="geometry">
            <mxPoint x="700.0299999999999" y="640" as="sourcePoint" />
            <mxPoint x="700" y="680" as="targetPoint" />
          </mxGeometry>
        </mxCell>
        <mxCell id="gzzAdNc6FvL0EBI_JPck-93" value="Fratr챈k absorberingsevne fra rustning eller naturligt v챈rn" style="rounded=0;whiteSpace=wrap;html=1;strokeWidth=2;fillColor=none;" parent="1" vertex="1">
          <mxGeometry x="380" y="750" width="220" height="30" as="geometry" />
        </mxCell>
        <mxCell id="gzzAdNc6FvL0EBI_JPck-94" style="edgeStyle=orthogonalEdgeStyle;rounded=0;orthogonalLoop=1;jettySize=auto;html=1;exitX=0.5;exitY=1;exitDx=0;exitDy=0;entryX=0.571;entryY=0;entryDx=0;entryDy=0;entryPerimeter=0;" parent="1" edge="1">
          <mxGeometry relative="1" as="geometry">
            <mxPoint x="550.03" y="640" as="sourcePoint" />
            <mxPoint x="550" y="680" as="targetPoint" />
          </mxGeometry>
        </mxCell>
        <mxCell id="gzzAdNc6FvL0EBI_JPck-97" style="edgeStyle=orthogonalEdgeStyle;rounded=0;orthogonalLoop=1;jettySize=auto;html=1;exitX=0.5;exitY=1;exitDx=0;exitDy=0;entryX=0.841;entryY=0;entryDx=0;entryDy=0;entryPerimeter=0;" parent="1" edge="1">
          <mxGeometry relative="1" as="geometry">
            <mxPoint x="550.03" y="710" as="sourcePoint" />
            <mxPoint x="550.0499999999998" y="750" as="targetPoint" />
          </mxGeometry>
        </mxCell>
        <mxCell id="gzzAdNc6FvL0EBI_JPck-98" style="edgeStyle=orthogonalEdgeStyle;rounded=0;orthogonalLoop=1;jettySize=auto;html=1;exitX=0.75;exitY=1;exitDx=0;exitDy=0;entryX=0.443;entryY=0;entryDx=0;entryDy=0;entryPerimeter=0;" parent="1" edge="1">
          <mxGeometry relative="1" as="geometry">
            <mxPoint x="500.04" y="710" as="sourcePoint" />
            <mxPoint x="499.99999999999994" y="750" as="targetPoint" />
          </mxGeometry>
        </mxCell>
        <mxCell id="gzzAdNc6FvL0EBI_JPck-99" style="edgeStyle=orthogonalEdgeStyle;rounded=0;orthogonalLoop=1;jettySize=auto;html=1;exitX=0.25;exitY=1;exitDx=0;exitDy=0;entryX=0.148;entryY=0;entryDx=0;entryDy=0;entryPerimeter=0;" parent="1" edge="1">
          <mxGeometry relative="1" as="geometry">
            <mxPoint x="420.01" y="710" as="sourcePoint" />
            <mxPoint x="420.06999999999994" y="750" as="targetPoint" />
          </mxGeometry>
        </mxCell>
        <mxCell id="gzzAdNc6FvL0EBI_JPck-100" style="edgeStyle=orthogonalEdgeStyle;rounded=0;orthogonalLoop=1;jettySize=auto;html=1;exitX=0.25;exitY=1;exitDx=0;exitDy=0;entryX=0.145;entryY=0;entryDx=0;entryDy=0;entryPerimeter=0;" parent="1" edge="1">
          <mxGeometry relative="1" as="geometry">
            <mxPoint x="420" y="780" as="sourcePoint" />
            <mxPoint x="420.0999999999999" y="820" as="targetPoint" />
          </mxGeometry>
        </mxCell>
        <mxCell id="gzzAdNc6FvL0EBI_JPck-101" style="edgeStyle=orthogonalEdgeStyle;rounded=0;orthogonalLoop=1;jettySize=auto;html=1;exitX=0.5;exitY=1;exitDx=0;exitDy=0;entryX=0.29;entryY=0;entryDx=0;entryDy=0;entryPerimeter=0;" parent="1" edge="1">
          <mxGeometry relative="1" as="geometry">
            <mxPoint x="500" y="780" as="sourcePoint" />
            <mxPoint x="500.20000000000005" y="820" as="targetPoint" />
          </mxGeometry>
        </mxCell>
        <mxCell id="gzzAdNc6FvL0EBI_JPck-102" style="edgeStyle=orthogonalEdgeStyle;rounded=0;orthogonalLoop=1;jettySize=auto;html=1;exitX=0.75;exitY=1;exitDx=0;exitDy=0;entryX=0.434;entryY=0;entryDx=0;entryDy=0;entryPerimeter=0;" parent="1" edge="1">
          <mxGeometry relative="1" as="geometry">
            <mxPoint x="570.09" y="780" as="sourcePoint" />
            <mxPoint x="570.01" y="820" as="targetPoint" />
          </mxGeometry>
        </mxCell>
        <mxCell id="gzzAdNc6FvL0EBI_JPck-103" style="edgeStyle=orthogonalEdgeStyle;rounded=0;orthogonalLoop=1;jettySize=auto;html=1;exitX=0.5;exitY=1;exitDx=0;exitDy=0;entryX=0.829;entryY=0;entryDx=0;entryDy=0;entryPerimeter=0;" parent="1" edge="1">
          <mxGeometry relative="1" as="geometry">
            <mxPoint x="700" y="710" as="sourcePoint" />
            <mxPoint x="700.02" y="820" as="targetPoint" />
          </mxGeometry>
        </mxCell>
        <mxCell id="gzzAdNc6FvL0EBI_JPck-104" value="&lt;div style=&quot;text-align: justify; font-size: 14px;&quot;&gt;&lt;span style=&quot;background-color: initial;&quot;&gt;&lt;font style=&quot;font-size: 14px;&quot;&gt;Resultat af tidligere valg&lt;/font&gt;&lt;/span&gt;&lt;/div&gt;&lt;div style=&quot;text-align: justify; font-size: 14px;&quot;&gt;&lt;br&gt;&lt;/div&gt;&lt;div style=&quot;text-align: justify; font-size: 14px; padding-top: 0px;&quot;&gt;&lt;br&gt;&lt;/div&gt;&lt;div style=&quot;text-align: justify; font-size: 14px;&quot;&gt;&lt;font style=&quot;font-size: 14px;&quot;&gt;Handling&lt;/font&gt;&lt;/div&gt;&lt;div style=&quot;text-align: justify; font-size: 14px;&quot;&gt;&lt;font style=&quot;font-size: 14px;&quot;&gt;&lt;br&gt;&lt;/font&gt;&lt;/div&gt;&lt;div style=&quot;text-align: justify; font-size: 14px;&quot;&gt;&lt;br&gt;&lt;/div&gt;&lt;div style=&quot;text-align: justify; font-size: 14px;&quot;&gt;&lt;font style=&quot;font-size: 14px;&quot;&gt;Angreb afsluttet&lt;/font&gt;&lt;/div&gt;" style="rounded=1;whiteSpace=wrap;html=1;align=center;fillColor=none;" parent="1" vertex="1">
          <mxGeometry x="40" y="620" width="280" height="150" as="geometry" />
        </mxCell>
        <mxCell id="gzzAdNc6FvL0EBI_JPck-106" value="" style="rounded=0;whiteSpace=wrap;html=1;strokeWidth=2;fillColor=none;" parent="1" vertex="1">
          <mxGeometry x="60" y="680" width="40" height="30" as="geometry" />
        </mxCell>
        <mxCell id="gzzAdNc6FvL0EBI_JPck-107" value="" style="rounded=0;whiteSpace=wrap;html=1;strokeWidth=3;fillColor=none;" parent="1" vertex="1">
          <mxGeometry x="60" y="730" width="40" height="30" as="geometry" />
        </mxCell>
        <mxCell id="gzzAdNc6FvL0EBI_JPck-108" value="" style="rounded=0;whiteSpace=wrap;html=1;fillColor=none;" parent="1" vertex="1">
          <mxGeometry x="60" y="630" width="40" height="30" as="geometry" />
        </mxCell>
      </root>
    </mxGraphModel>
  </diagram>
</mxfile>
